<svg width="141" height="24" viewBox="0 0 141 24" fill="none" xmlns="http://www.w3.org/2000/svg">
<path d="M18.7699 1.42178C19.5509 0.640733 20.8172 0.640733 21.5983 1.42178L30.7622 10.5857C31.5432 11.3667 31.5432 12.6331 30.7622 13.4141L21.5983 22.578C20.8172 23.3591 19.5509 23.3591 18.7699 22.578L9.60597 13.4141C8.82492 12.6331 8.82492 11.3667 9.60597 10.5857L18.7699 1.42178Z" fill="#4CA154"/>
<path d="M10.578 1.42196C11.359 0.640916 12.6254 0.640916 13.4064 1.42197L22.5703 10.5859C23.3513 11.3669 23.3513 12.6332 22.5703 13.4143L13.4064 22.5782C12.6254 23.3592 11.359 23.3592 10.578 22.5782L1.41407 13.4143C0.633025 12.6332 0.633026 11.3669 1.41407 10.5859L10.578 1.42196Z" fill="#263FA9"/>
<path d="M55.7688 17.808H49.4808L48.4728 20.784H44.1768L50.2728 3.93599H55.0248L61.1208 20.784H56.7768L55.7688 17.808ZM54.7128 14.64L52.6248 8.47199L50.5608 14.64H54.7128Z" fill="#223344"/>
<path d="M66.8401 3.02399V20.784H62.7361V3.02399H66.8401Z" fill="#223344"/>
<path d="M68.7582 14.064C68.7582 12.688 69.0142 11.48 69.5262 10.44C70.0542 9.39999 70.7662 8.59999 71.6622 8.03999C72.5582 7.47999 73.5582 7.19999 74.6622 7.19999C75.6062 7.19999 76.4302 7.39199 77.1342 7.77599C77.8542 8.15999 78.4062 8.66399 78.7902 9.28799V7.39199H82.8942V20.784H78.7902V18.888C78.3902 19.512 77.8302 20.016 77.1102 20.4C76.4062 20.784 75.5822 20.976 74.6382 20.976C73.5502 20.976 72.5582 20.696 71.6622 20.136C70.7662 19.56 70.0542 18.752 69.5262 17.712C69.0142 16.656 68.7582 15.44 68.7582 14.064ZM78.7902 14.088C78.7902 13.064 78.5022 12.256 77.9262 11.664C77.3662 11.072 76.6782 10.776 75.8622 10.776C75.0462 10.776 74.3502 11.072 73.7742 11.664C73.2142 12.24 72.9342 13.04 72.9342 14.064C72.9342 15.088 73.2142 15.904 73.7742 16.512C74.3502 17.104 75.0462 17.4 75.8622 17.4C76.6782 17.4 77.3662 17.104 77.9262 16.512C78.5022 15.92 78.7902 15.112 78.7902 14.088Z" fill="#223344"/>
<path d="M89.7273 9.62399C90.2073 8.88799 90.8073 8.31199 91.5273 7.89599C92.2473 7.46399 93.0473 7.24799 93.9273 7.24799V11.592H92.7993C91.7753 11.592 91.0073 11.816 90.4953 12.264C89.9833 12.696 89.7273 13.464 89.7273 14.568V20.784H85.6233V7.39199H89.7273V9.62399Z" fill="#223344"/>
<path d="M94.8329 14.064C94.8329 12.688 95.0889 11.48 95.6009 10.44C96.1289 9.39999 96.8409 8.59999 97.7369 8.03999C98.6329 7.47999 99.6329 7.19999 100.737 7.19999C101.681 7.19999 102.505 7.39199 103.209 7.77599C103.929 8.15999 104.481 8.66399 104.865 9.28799V7.39199H108.969V20.784H104.865V18.888C104.465 19.512 103.905 20.016 103.185 20.4C102.481 20.784 101.657 20.976 100.713 20.976C99.6249 20.976 98.6329 20.696 97.7369 20.136C96.8409 19.56 96.1289 18.752 95.6009 17.712C95.0889 16.656 94.8329 15.44 94.8329 14.064ZM104.865 14.088C104.865 13.064 104.577 12.256 104.001 11.664C103.441 11.072 102.753 10.776 101.937 10.776C101.121 10.776 100.425 11.072 99.8489 11.664C99.2889 12.24 99.0089 13.04 99.0089 14.064C99.0089 15.088 99.2889 15.904 99.8489 16.512C100.425 17.104 101.121 17.4 101.937 17.4C102.753 17.4 103.441 17.104 104.001 16.512C104.577 15.92 104.865 15.112 104.865 14.088Z" fill="#223344"/>
<path d="M110.882 14.064C110.882 12.688 111.138 11.48 111.65 10.44C112.178 9.39999 112.89 8.59999 113.786 8.03999C114.682 7.47999 115.682 7.19999 116.786 7.19999C117.666 7.19999 118.466 7.38399 119.186 7.75199C119.922 8.11999 120.498 8.61599 120.914 9.23999V3.02399H125.018V20.784H120.914V18.864C120.53 19.504 119.978 20.016 119.258 20.4C118.554 20.784 117.73 20.976 116.786 20.976C115.682 20.976 114.682 20.696 113.786 20.136C112.89 19.56 112.178 18.752 111.65 17.712C111.138 16.656 110.882 15.44 110.882 14.064ZM120.914 14.088C120.914 13.064 120.626 12.256 120.05 11.664C119.49 11.072 118.802 10.776 117.986 10.776C117.17 10.776 116.474 11.072 115.898 11.664C115.338 12.24 115.058 13.04 115.058 14.064C115.058 15.088 115.338 15.904 115.898 16.512C116.474 17.104 117.17 17.4 117.986 17.4C118.802 17.4 119.49 17.104 120.05 16.512C120.626 15.92 120.914 15.112 120.914 14.088Z" fill="#223344"/>
<path d="M133.843 20.976C132.531 20.976 131.347 20.696 130.291 20.136C129.251 19.576 128.427 18.776 127.819 17.736C127.227 16.696 126.931 15.48 126.931 14.088C126.931 12.712 127.235 11.504 127.843 10.464C128.451 9.40799 129.283 8.59999 130.339 8.03999C131.395 7.47999 132.579 7.19999 133.891 7.19999C135.203 7.19999 136.387 7.47999 137.443 8.03999C138.499 8.59999 139.331 9.40799 139.939 10.464C140.547 11.504 140.851 12.712 140.851 14.088C140.851 15.464 140.539 16.68 139.915 17.736C139.307 18.776 138.467 19.576 137.395 20.136C136.339 20.696 135.155 20.976 133.843 20.976ZM133.843 17.424C134.627 17.424 135.291 17.136 135.835 16.56C136.395 15.984 136.675 15.16 136.675 14.088C136.675 13.016 136.403 12.192 135.859 11.616C135.331 11.04 134.675 10.752 133.891 10.752C133.091 10.752 132.427 11.04 131.899 11.616C131.371 12.176 131.107 13 131.107 14.088C131.107 15.16 131.363 15.984 131.875 16.56C132.403 17.136 133.059 17.424 133.843 17.424Z" fill="#223344"/>
</svg>
